<?xml version="1.0" encoding="UTF-8"?>
<svg xmlns="http://www.w3.org/2000/svg" width="64" height="64" viewBox="0 0 64 64" role="img" aria-label="boot gears icon">
<title>Boot Gears</title>
<desc>Original Ubuntu Hibernate Wizard project icon made from simple vector primitives; no third-party icon set or trademarked logo.</desc>


<g fill="#E6E9EF" stroke="#5F6673" stroke-width="3" stroke-linejoin="round">
<path d="M25 16l3 3 4-1 2 5-3 2v4l3 2-2 5-4-1-3 3-3-3-4 1-2-5 3-2v-4l-3-2 2-5 4 1z"/>
<circle cx="25" cy="27" r="6" fill="#F8F8FB"/>
<path d="M42 29l2.4 2.4 3.3-.8 1.8 4.3-2.7 1.8v3.4l2.7 1.8-1.8 4.3-3.3-.8L42 48l-2.4-2.4-3.3.8-1.8-4.3 2.7-1.8v-3.4l-2.7-1.8 1.8-4.3 3.3.8z"/>
<circle cx="42" cy="38.5" r="5" fill="#F8F8FB"/>
</g>

</svg>
