<?xml version="1.0" encoding="UTF-8"?>
<svg xmlns="http://www.w3.org/2000/svg" width="64" height="64" viewBox="0 0 64 64" role="img" aria-label="services stop icon">
<title>Services Stop</title>
<desc>Original Ubuntu Hibernate Wizard project icon made from simple vector primitives; no third-party icon set or trademarked logo.</desc>


<path d="M30 16l3 3 4-1 2 5-3 2v4l3 2-2 5-4-1-3 3-3-3-4 1-2-5 3-2v-4l-3-2 2-5 4 1z" fill="#E6E9EF" stroke="#5F6673" stroke-width="3" stroke-linejoin="round"/>
<circle cx="30" cy="27" r="6" fill="#F8F8FB" stroke="#5F6673" stroke-width="3"/>
<path d="M46 29l10 4v8c0 6-4 9.5-10 11.5C40 50.5 36 47 36 41v-8z" fill="#2FA84F"/>
<path d="M42 41l3 3 7-8" fill="none" stroke="#fff" stroke-width="3" stroke-linecap="round" stroke-linejoin="round"/>

</svg>
